<?xml version="1.0" encoding="UTF-8" ?>
<svg version="1.1" width="128" height="128" xmlns="http://www.w3.org/2000/svg" shape-rendering="crispEdges">
<rect x="31" y="8" width="1" height="1" fill="#CE90EE" opacity="0.494118" />
<rect x="32" y="8" width="1" height="1" fill="#CE90EE" opacity="0.525490" />
<rect x="30" y="9" width="1" height="1" fill="#CE90EE" opacity="0.494118" />
<rect x="31" y="9" width="2" height="110" fill="#CD8FED" opacity="0.988235" />
<rect x="33" y="9" width="1" height="1" fill="#CE90EE" opacity="0.525490" />
<rect x="29" y="10" width="1" height="1" fill="#CE90EE" opacity="0.494118" />
<rect x="30" y="10" width="1" height="108" fill="#CD8FED" opacity="0.988235" />
<rect x="33" y="10" width="1" height="108" fill="#CD8FED" opacity="0.988235" />
<rect x="34" y="10" width="1" height="1" fill="#CE90EE" opacity="0.525490" />
<rect x="28" y="11" width="1" height="1" fill="#CE90EE" opacity="0.494118" />
<rect x="29" y="11" width="1" height="106" fill="#CD8FED" opacity="0.988235" />
<rect x="34" y="11" width="1" height="106" fill="#CD8FED" opacity="0.988235" />
<rect x="35" y="11" width="1" height="1" fill="#CE90EE" opacity="0.525490" />
<rect x="27" y="12" width="1" height="1" fill="#CE90EE" opacity="0.494118" />
<rect x="28" y="12" width="1" height="104" fill="#CD8FED" opacity="0.988235" />
<rect x="35" y="12" width="1" height="104" fill="#CD8FED" opacity="0.988235" />
<rect x="36" y="12" width="1" height="1" fill="#CE90EE" opacity="0.525490" />
<rect x="26" y="13" width="1" height="1" fill="#CE90EE" opacity="0.494118" />
<rect x="27" y="13" width="1" height="102" fill="#CD8FED" opacity="0.988235" />
<rect x="36" y="13" width="1" height="102" fill="#CD8FED" opacity="0.988235" />
<rect x="37" y="13" width="1" height="1" fill="#CE90EE" opacity="0.525490" />
<rect x="25" y="14" width="1" height="1" fill="#CE90EE" opacity="0.494118" />
<rect x="26" y="14" width="1" height="100" fill="#CD8FED" opacity="0.988235" />
<rect x="37" y="14" width="1" height="100" fill="#CD8FED" opacity="0.988235" />
<rect x="38" y="14" width="1" height="1" fill="#CE90EE" opacity="0.525490" />
<rect x="24" y="15" width="1" height="1" fill="#CE90EE" opacity="0.494118" />
<rect x="25" y="15" width="1" height="98" fill="#CD8FED" opacity="0.988235" />
<rect x="38" y="15" width="1" height="98" fill="#CD8FED" opacity="0.988235" />
<rect x="39" y="15" width="1" height="1" fill="#CE90EE" opacity="0.525490" />
<rect x="23" y="16" width="1" height="1" fill="#CE90EE" opacity="0.494118" />
<rect x="24" y="16" width="1" height="96" fill="#CD8FED" opacity="0.988235" />
<rect x="39" y="16" width="1" height="96" fill="#CD8FED" opacity="0.988235" />
<rect x="40" y="16" width="1" height="1" fill="#CE90EE" opacity="0.525490" />
<rect x="72" y="16" width="48" height="16" fill="#CD8FED" opacity="0.988235" />
<rect x="22" y="17" width="1" height="1" fill="#CE90EE" opacity="0.494118" />
<rect x="23" y="17" width="1" height="15" fill="#CD8FED" opacity="0.988235" />
<rect x="40" y="17" width="1" height="15" fill="#CD8FED" opacity="0.988235" />
<rect x="41" y="17" width="1" height="1" fill="#CE90EE" opacity="0.525490" />
<rect x="21" y="18" width="1" height="1" fill="#CE90EE" opacity="0.494118" />
<rect x="22" y="18" width="1" height="14" fill="#CD8FED" opacity="0.988235" />
<rect x="41" y="18" width="1" height="14" fill="#CD8FED" opacity="0.988235" />
<rect x="42" y="18" width="1" height="1" fill="#CE90EE" opacity="0.525490" />
<rect x="20" y="19" width="1" height="1" fill="#CE90EE" opacity="0.494118" />
<rect x="21" y="19" width="1" height="13" fill="#CD8FED" opacity="0.988235" />
<rect x="42" y="19" width="1" height="13" fill="#CD8FED" opacity="0.988235" />
<rect x="43" y="19" width="1" height="1" fill="#CE90EE" opacity="0.525490" />
<rect x="19" y="20" width="1" height="1" fill="#CE90EE" opacity="0.494118" />
<rect x="20" y="20" width="1" height="12" fill="#CD8FED" opacity="0.988235" />
<rect x="43" y="20" width="1" height="12" fill="#CD8FED" opacity="0.988235" />
<rect x="44" y="20" width="1" height="1" fill="#CE90EE" opacity="0.525490" />
<rect x="18" y="21" width="1" height="1" fill="#CE90EE" opacity="0.494118" />
<rect x="19" y="21" width="1" height="11" fill="#CD8FED" opacity="0.988235" />
<rect x="44" y="21" width="1" height="11" fill="#CD8FED" opacity="0.988235" />
<rect x="45" y="21" width="1" height="1" fill="#CE90EE" opacity="0.525490" />
<rect x="17" y="22" width="1" height="1" fill="#CE90EE" opacity="0.494118" />
<rect x="18" y="22" width="1" height="10" fill="#CD8FED" opacity="0.988235" />
<rect x="45" y="22" width="1" height="10" fill="#CD8FED" opacity="0.988235" />
<rect x="46" y="22" width="1" height="1" fill="#CE90EE" opacity="0.525490" />
<rect x="16" y="23" width="1" height="1" fill="#CE90EE" opacity="0.494118" />
<rect x="17" y="23" width="1" height="9" fill="#CD8FED" opacity="0.988235" />
<rect x="46" y="23" width="1" height="9" fill="#CD8FED" opacity="0.988235" />
<rect x="47" y="23" width="1" height="1" fill="#CE90EE" opacity="0.525490" />
<rect x="15" y="24" width="1" height="1" fill="#CE90EE" opacity="0.494118" />
<rect x="16" y="24" width="1" height="8" fill="#CD8FED" opacity="0.988235" />
<rect x="47" y="24" width="1" height="8" fill="#CD8FED" opacity="0.988235" />
<rect x="48" y="24" width="1" height="1" fill="#CE90EE" opacity="0.525490" />
<rect x="14" y="25" width="1" height="1" fill="#CE90EE" opacity="0.494118" />
<rect x="15" y="25" width="1" height="7" fill="#CD8FED" opacity="0.988235" />
<rect x="48" y="25" width="1" height="7" fill="#CD8FED" opacity="0.988235" />
<rect x="49" y="25" width="1" height="1" fill="#CE90EE" opacity="0.525490" />
<rect x="13" y="26" width="1" height="1" fill="#CE90EE" opacity="0.494118" />
<rect x="14" y="26" width="1" height="6" fill="#CD8FED" opacity="0.988235" />
<rect x="49" y="26" width="1" height="6" fill="#CD8FED" opacity="0.988235" />
<rect x="50" y="26" width="1" height="1" fill="#CE90EE" opacity="0.525490" />
<rect x="12" y="27" width="1" height="1" fill="#CE90EE" opacity="0.494118" />
<rect x="13" y="27" width="1" height="5" fill="#CD8FED" opacity="0.988235" />
<rect x="50" y="27" width="1" height="5" fill="#CD8FED" opacity="0.988235" />
<rect x="51" y="27" width="1" height="1" fill="#CE90EE" opacity="0.525490" />
<rect x="11" y="28" width="1" height="1" fill="#CE90EE" opacity="0.494118" />
<rect x="12" y="28" width="1" height="4" fill="#CD8FED" opacity="0.988235" />
<rect x="51" y="28" width="1" height="4" fill="#CD8FED" opacity="0.988235" />
<rect x="52" y="28" width="1" height="1" fill="#CE90EE" opacity="0.525490" />
<rect x="10" y="29" width="1" height="1" fill="#CE90EE" opacity="0.494118" />
<rect x="11" y="29" width="1" height="3" fill="#CD8FED" opacity="0.988235" />
<rect x="52" y="29" width="1" height="3" fill="#CD8FED" opacity="0.988235" />
<rect x="53" y="29" width="1" height="1" fill="#CE90EE" opacity="0.525490" />
<rect x="9" y="30" width="1" height="1" fill="#CE90EE" opacity="0.494118" />
<rect x="10" y="30" width="1" height="2" fill="#CD8FED" opacity="0.988235" />
<rect x="53" y="30" width="1" height="2" fill="#CD8FED" opacity="0.988235" />
<rect x="54" y="30" width="1" height="1" fill="#CE90EE" opacity="0.525490" />
<rect x="8" y="31" width="1" height="1" fill="#CE90EE" opacity="0.494118" />
<rect x="9" y="31" width="1" height="1" fill="#CD8FED" opacity="0.988235" />
<rect x="54" y="31" width="1" height="1" fill="#CD8FED" opacity="0.988235" />
<rect x="55" y="31" width="1" height="1" fill="#CE90EE" opacity="0.525490" />
<rect x="72" y="56" width="32" height="16" fill="#CD8FED" opacity="0.988235" />
<rect x="8" y="96" width="1" height="1" fill="#CB8EEA" opacity="0.462745" />
<rect x="9" y="96" width="15" height="1" fill="#CD8FED" opacity="0.988235" />
<rect x="40" y="96" width="15" height="1" fill="#CD8FED" opacity="0.988235" />
<rect x="55" y="96" width="1" height="1" fill="#CC8EEC" opacity="0.494118" />
<rect x="72" y="96" width="16" height="16" fill="#CD8FED" opacity="0.988235" />
<rect x="9" y="97" width="1" height="1" fill="#CB8EEA" opacity="0.462745" />
<rect x="10" y="97" width="14" height="1" fill="#CD8FED" opacity="0.988235" />
<rect x="40" y="97" width="14" height="1" fill="#CD8FED" opacity="0.988235" />
<rect x="54" y="97" width="1" height="1" fill="#CC8EEC" opacity="0.494118" />
<rect x="10" y="98" width="1" height="1" fill="#CB8EEA" opacity="0.462745" />
<rect x="11" y="98" width="13" height="1" fill="#CD8FED" opacity="0.988235" />
<rect x="40" y="98" width="13" height="1" fill="#CD8FED" opacity="0.988235" />
<rect x="53" y="98" width="1" height="1" fill="#CC8EEC" opacity="0.494118" />
<rect x="11" y="99" width="1" height="1" fill="#CB8EEA" opacity="0.462745" />
<rect x="12" y="99" width="12" height="1" fill="#CD8FED" opacity="0.988235" />
<rect x="40" y="99" width="12" height="1" fill="#CD8FED" opacity="0.988235" />
<rect x="52" y="99" width="1" height="1" fill="#CC8EEC" opacity="0.494118" />
<rect x="12" y="100" width="1" height="1" fill="#CB8EEA" opacity="0.462745" />
<rect x="13" y="100" width="11" height="1" fill="#CD8FED" opacity="0.988235" />
<rect x="40" y="100" width="11" height="1" fill="#CD8FED" opacity="0.988235" />
<rect x="51" y="100" width="1" height="1" fill="#CC8EEC" opacity="0.494118" />
<rect x="13" y="101" width="1" height="1" fill="#CB8EEA" opacity="0.462745" />
<rect x="14" y="101" width="10" height="1" fill="#CD8FED" opacity="0.988235" />
<rect x="40" y="101" width="10" height="1" fill="#CD8FED" opacity="0.988235" />
<rect x="50" y="101" width="1" height="1" fill="#CC8EEC" opacity="0.494118" />
<rect x="14" y="102" width="1" height="1" fill="#CB8EEA" opacity="0.462745" />
<rect x="15" y="102" width="9" height="1" fill="#CD8FED" opacity="0.988235" />
<rect x="40" y="102" width="9" height="1" fill="#CD8FED" opacity="0.988235" />
<rect x="49" y="102" width="1" height="1" fill="#CC8EEC" opacity="0.494118" />
<rect x="15" y="103" width="1" height="1" fill="#CB8EEA" opacity="0.462745" />
<rect x="16" y="103" width="8" height="1" fill="#CD8FED" opacity="0.988235" />
<rect x="40" y="103" width="8" height="1" fill="#CD8FED" opacity="0.988235" />
<rect x="48" y="103" width="1" height="1" fill="#CC8EEC" opacity="0.494118" />
<rect x="16" y="104" width="1" height="1" fill="#CB8EEA" opacity="0.462745" />
<rect x="17" y="104" width="7" height="1" fill="#CD8FED" opacity="0.988235" />
<rect x="40" y="104" width="7" height="1" fill="#CD8FED" opacity="0.988235" />
<rect x="47" y="104" width="1" height="1" fill="#CC8EEC" opacity="0.494118" />
<rect x="17" y="105" width="1" height="1" fill="#CB8EEA" opacity="0.462745" />
<rect x="18" y="105" width="6" height="1" fill="#CD8FED" opacity="0.988235" />
<rect x="40" y="105" width="6" height="1" fill="#CD8FED" opacity="0.988235" />
<rect x="46" y="105" width="1" height="1" fill="#CC8EEC" opacity="0.494118" />
<rect x="18" y="106" width="1" height="1" fill="#CB8EEA" opacity="0.462745" />
<rect x="19" y="106" width="5" height="1" fill="#CD8FED" opacity="0.988235" />
<rect x="40" y="106" width="5" height="1" fill="#CD8FED" opacity="0.988235" />
<rect x="45" y="106" width="1" height="1" fill="#CC8EEC" opacity="0.494118" />
<rect x="19" y="107" width="1" height="1" fill="#CB8EEA" opacity="0.462745" />
<rect x="20" y="107" width="4" height="1" fill="#CD8FED" opacity="0.988235" />
<rect x="40" y="107" width="4" height="1" fill="#CD8FED" opacity="0.988235" />
<rect x="44" y="107" width="1" height="1" fill="#CC8EEC" opacity="0.494118" />
<rect x="20" y="108" width="1" height="1" fill="#CB8EEA" opacity="0.462745" />
<rect x="21" y="108" width="3" height="1" fill="#CD8FED" opacity="0.988235" />
<rect x="40" y="108" width="3" height="1" fill="#CD8FED" opacity="0.988235" />
<rect x="43" y="108" width="1" height="1" fill="#CC8EEC" opacity="0.494118" />
<rect x="21" y="109" width="1" height="1" fill="#CB8EEA" opacity="0.462745" />
<rect x="22" y="109" width="2" height="1" fill="#CD8FED" opacity="0.988235" />
<rect x="40" y="109" width="2" height="1" fill="#CD8FED" opacity="0.988235" />
<rect x="42" y="109" width="1" height="1" fill="#CC8EEC" opacity="0.494118" />
<rect x="22" y="110" width="1" height="1" fill="#CB8EEA" opacity="0.462745" />
<rect x="23" y="110" width="1" height="1" fill="#CD8FED" opacity="0.988235" />
<rect x="40" y="110" width="1" height="1" fill="#CD8FED" opacity="0.988235" />
<rect x="41" y="110" width="1" height="1" fill="#CC8EEC" opacity="0.494118" />
<rect x="23" y="111" width="1" height="1" fill="#CB8EEA" opacity="0.462745" />
<rect x="40" y="111" width="1" height="1" fill="#CC8EEC" opacity="0.494118" />
<rect x="24" y="112" width="1" height="1" fill="#CB8EEA" opacity="0.462745" />
<rect x="39" y="112" width="1" height="1" fill="#CC8EEC" opacity="0.494118" />
<rect x="25" y="113" width="1" height="1" fill="#CB8EEA" opacity="0.462745" />
<rect x="38" y="113" width="1" height="1" fill="#CC8EEC" opacity="0.494118" />
<rect x="26" y="114" width="1" height="1" fill="#CB8EEA" opacity="0.462745" />
<rect x="37" y="114" width="1" height="1" fill="#CC8EEC" opacity="0.494118" />
<rect x="27" y="115" width="1" height="1" fill="#CB8EEA" opacity="0.462745" />
<rect x="36" y="115" width="1" height="1" fill="#CC8EEC" opacity="0.494118" />
<rect x="28" y="116" width="1" height="1" fill="#CB8EEA" opacity="0.462745" />
<rect x="35" y="116" width="1" height="1" fill="#CC8EEC" opacity="0.494118" />
<rect x="29" y="117" width="1" height="1" fill="#CB8EEA" opacity="0.462745" />
<rect x="34" y="117" width="1" height="1" fill="#CC8EEC" opacity="0.494118" />
<rect x="30" y="118" width="1" height="1" fill="#CB8EEA" opacity="0.462745" />
<rect x="33" y="118" width="1" height="1" fill="#CC8EEC" opacity="0.494118" />
<rect x="31" y="119" width="2" height="1" fill="#CE90EE" opacity="0.494118" />
</svg>